PathFileType	4	(X/Y/Z)	C:\Users\WrightLab\Desktop\Jo\P1_boxCal5.trc
DataRate	CameraRate	NumFrames	NumMarkers	Units	OrigDataRate	OrigDataStartFrame	OrigNumFrames
100.00	100.00	       42	19	mm	100.00	1	       976
Frame#	Time	Headset_Front			Headset_Back			Headset_Left			Headset_Right			Left_Shoulder			Right_Shoulder			Sternum			C7			Left Elbow			Right Elbow			Left Wrist			Right Wrist			Left ASIS			Right ASIS			S2			Left Knee			Right Knee			Left Ankle			Right Ankle			
		X1	Y1	Z1	X2	Y2	Z2	X3	Y3	Z3	X4	Y4	Z4	X5	Y5	Z5	X6	Y6	Z6	X7	Y7	Z7	X8	Y8	Z8	X9	Y9	Z9	X10	Y10	Z10	X11	Y11	Z11	X12	Y12	Z12	X13	Y13	Z13	X14	Y14	Z14	X15	Y15	Z15	X16	Y16	Z16	X17	Y17	Z17	X18	Y18	Z18	X19	Y19	Z19	

1	0.000							-824.24048	494.79919	2394.17993	-431.23117	1007.96088	2141.33447				-1000.86945	981.54138	2148.52490							-494.94345	153.81815	2234.31885										-521.28204	530.14014	2248.17017																			
2	0.010							-824.09967	494.67419	2392.97803	-431.08124	1008.16583	2138.64624				-1000.57251	981.10614	2147.61108							-497.07001	152.54120	2225.80469										-521.80060	529.90436	2248.26709																			
3	0.020							-823.96545	494.71951	2392.37036	-431.14291	1008.71887	2136.43604				-1000.34369	980.63538	2146.71777							-499.59262	153.17772	2219.21460										-523.27100	530.42358	2245.28442																			
4	0.030							-823.68707	494.42740	2391.28418	-430.88379	1008.99915	2133.95557				-1000.12115	979.74506	2145.11963							-502.33322	153.55574	2209.51733										-523.66809	530.81201	2242.64551																			
5	0.040							-823.50171	494.48746	2390.23413	-430.81238	1009.25952	2131.95898				-999.71796	978.57886	2142.96533							-504.56683	153.86983	2202.51636										-523.91974	530.75690	2242.10474																			
6	0.050							-823.26935	494.33344	2388.71387	-430.86450	1009.86438	2129.01465				-999.32141	977.54559	2140.95410							-507.22736	154.91058	2194.97046										-524.78778	530.72192	2236.48047																			
7	0.060							-823.03479	494.38037	2387.51465	-430.68845	1010.14886	2126.90820				-999.08722	977.29523	2140.18286							-509.62186	154.76035	2187.40747										-525.45941	531.85706	2235.78418																			
8	0.070							-822.48102	494.32327	2385.85693	-430.31268	1010.63892	2123.62036				-998.66461	976.76086	2138.65698							-510.96927	155.53058	2181.61963										-525.38733	531.84369	2233.04077																			
9	0.080							-822.03406	494.15335	2384.41040	-429.99194	1010.94531	2122.00977				-997.83337	975.74500	2135.86694							-513.83337	156.75569	2176.18066										-526.18970	531.92529	2229.10669																			
10	0.090							-821.69843	494.06152	2382.83276	-429.78333	1011.54834	2118.71509				-997.27917	974.79846	2132.94897							-515.06812	156.77086	2170.68726										-526.29578	531.55078	2225.51318																			
11	0.100							-821.29840	494.13995	2381.57397	-429.18771	1011.58887	2117.03564				-996.60675	974.26276	2130.43921							-516.65491	158.41325	2163.99365										-527.53363	532.72034	2220.65576																			
12	0.110							-821.00482	494.23523	2380.15112	-428.82373	1012.07983	2113.57178				-995.92688	973.46021	2127.52515							-518.68494	159.60423	2157.96729										-527.85107	532.46460	2218.61328																			
13	0.120							-820.62756	494.20584	2377.95581	-428.49844	1012.15900	2111.77319				-994.76202	972.66193	2124.50610							-520.43781	160.13101	2150.83838										-528.09900	532.59277	2214.15112																			
14	0.130							-820.27075	494.18091	2375.84619	-427.98096	1012.21790	2108.12476				-993.88086	971.85651	2121.99097							-521.51672	160.74432	2145.46118										-528.58368	533.80841	2210.48486																			
15	0.140							-820.00348	493.75876	2373.96021	-427.40518	1012.09979	2105.30737													-522.01843	161.25040	2139.73633										-528.57574	533.21338	2206.97778																			
16	0.150							-819.70770	493.58728	2372.30737	-426.94220	1012.12579	2102.39014													-523.03680	161.36382	2133.80078										-529.46844	533.37390	2202.88306																			
17	0.160							-819.19104	493.43549	2369.58374	-426.35245	1011.87811	2099.53979				-992.52368	970.76581	2114.60181							-523.85992	161.96634	2128.29468										-528.93262	533.40546	2199.32373																			
18	0.170							-818.71442	493.32755	2367.15967	-425.66455	1011.61731	2096.73096				-991.19281	969.65143	2109.49512							-524.94220	162.94357	2123.06201										-530.06262	534.08685	2193.54077																			
19	0.180							-818.25470	493.11707	2365.20337	-424.94965	1011.56409	2093.98975				-990.59320	969.26501	2106.98120							-525.24329	163.01303	2117.35620										-529.78516	533.53876	2191.21045																			
20	0.190							-817.71265	492.95856	2363.02979	-423.98370	1011.46979	2091.44653				-989.86481	969.17761	2104.57178							-526.40717	164.07439	2111.30884										-529.65857	533.78387	2186.92358																			
21	0.200							-817.18457	492.68372	2360.24463	-423.31445	1010.90759	2088.44165				-988.57971	969.04645	2100.12988							-526.00793	164.42252	2108.52344										-529.60657	533.90680	2182.82300																			
22	0.210							-816.26184	492.19482	2357.39355	-422.46060	1010.35455	2084.61060				-987.75085	968.73248	2096.38599							-526.27679	164.20950	2102.36621										-529.92383	533.38629	2178.66602																			
23	0.220							-815.78369	491.96603	2355.36865	-421.84967	1009.92242	2081.45093				-986.85565	968.35242	2093.59473							-526.47876	164.44440	2097.71777										-529.75464	533.86517	2174.10547																			
24	0.230							-815.01068	491.58224	2352.97144	-420.72592	1009.62061	2077.78320				-985.57990	968.33032	2088.55908							-527.22919	164.66763	2092.13110										-529.14227	533.46100	2171.23364																			
25	0.240							-814.34821	491.43219	2349.83179	-419.82364	1009.07928	2074.78271				-984.31152	968.29425	2085.42896							-527.34381	164.51738	2087.63940										-529.34869	533.39435	2166.50928																			
26	0.250							-813.70587	491.09656	2346.97583	-418.75305	1008.26837	2070.93848				-983.63446	968.68762	2082.00806							-526.98016	163.57188	2082.22485										-528.66058	532.63239	2162.17456																			
27	0.260							-813.24255	490.52036	2345.02588	-417.82382	1007.79144	2066.87769				-982.70654	968.63562	2077.27954							-526.53381	163.78232	2079.90796										-528.10645	531.71600	2159.58691																			
28	0.270							-812.87445	490.06342	2342.03516	-416.79965	1007.18671	2063.76099				-982.02881	968.76141	2073.60938							-526.71899	163.03795	2074.15527										-527.91260	531.86694	2154.04834																			
29	0.280							-812.16132	489.71365	2338.72827	-415.73596	1006.55536	2059.05615				-981.19714	969.07843	2068.37524							-526.03790	162.25558	2070.14575										-527.62177	530.59564	2150.62646																			
30	0.290							-811.72681	489.25424	2336.34131	-414.63971	1005.38245	2055.27612				-980.66748	969.20129	2064.67139							-525.90784	161.95311	2066.99609										-526.74738	529.59497	2146.14282																			
31	0.300							-811.19666	488.86118	2333.82837	-413.56363	1005.26007	2050.48267				-979.76666	969.89850	2059.45776							-526.08044	160.52049	2062.33057										-527.03546	528.65387	2140.85571																			
32	0.310							-810.70728	488.62134	2330.74341	-412.28748	1004.45862	2046.35742				-979.02057	969.79181	2055.99902							-525.12708	159.57628	2059.72314										-525.98187	528.51160	2137.95605																			
33	0.320							-809.99341	488.42062	2327.33057	-411.32571	1003.70709	2041.37695				-978.30365	970.16827	2050.16797							-524.34039	158.58629	2056.92969										-526.33136	527.26575	2131.24341																			
34	0.330							-809.72009	487.89682	2325.21582	-410.20340	1003.20856	2037.00122				-977.64502	970.33728	2045.60303							-523.05994	156.35312	2054.67432										-525.30078	526.35840	2128.02856																			
35	0.340							-809.26190	487.62918	2322.05566	-408.91177	1002.68524	2032.02148				-976.83380	970.84058	2039.85632							-522.99066	154.89017	2050.67700										-524.73468	525.17657	2123.48682																			
36	0.350							-809.05542	487.50647	2318.54126	-407.78354	1002.05072	2025.97156				-976.19165	971.02551	2035.66162							-522.06610	153.65491	2048.66187										-524.64459	523.91040	2117.95459																			
37	0.360							-808.49792	486.97455	2315.32422	-406.68054	1001.42542	2021.75439				-975.70496	971.58374	2030.81897							-521.93903	152.15613	2045.72961										-524.24957	521.95514	2113.33276																			
38	0.370							-808.06470	486.90298	2312.29712	-405.56314	1001.29199	2015.27661				-975.24615	972.05542	2025.06909							-521.20575	149.19646	2044.96277										-524.03998	521.04669	2107.86426																			
39	0.380							-807.59650	487.02209	2308.03491	-404.37930	1000.69348	2009.26501				-974.71692	972.14252	2019.73853							-520.49481	147.51479	2043.38538										-523.26312	518.67053	2104.36328																			
40	0.390							-807.00568	486.64429	2304.78491	-403.10410	1000.36945	2003.59985				-974.02405	972.66730	2013.59546							-519.70184	145.16481	2042.92273										-522.57654	516.64679	2098.78784																			
41	0.400							-806.36163	486.59467	2300.21021	-401.79590	1000.10767	1997.31750				-973.69348	972.99573	2009.06299							-519.37909	143.30795	2040.75977										-522.33423	514.99432	2094.22705																			
42	0.410							-806.06470	486.22882	2296.66821	-400.74893	999.53589	1991.44556				-973.16669	973.56738	2002.53931							-518.58673	141.73889	2039.82495										-521.49561	513.32477	2091.11377																			
